<?xml version="1.0" encoding="utf-8"?>
<svg version="1.1" xmlns:xlink="http://www.w3.org/1999/xlink" width="13px" height="13px" viewBox="422 626  13 13" xmlns="http://www.w3.org/2000/svg">
  <path d="M 428.5 626  C 432.14 626  435 628.86  435 632.5  C 435 636.14  432.14 639  428.5 639  C 424.86 639  422 636.14  422 632.5  C 422 628.86  424.86 626  428.5 626  Z " fill-rule="nonzero" fill="#ffffff" stroke="none" />
  <path d="M 428.5 626.5  C 431.86 626.5  434.5 629.14  434.5 632.5  C 434.5 635.86  431.86 638.5  428.5 638.5  C 425.14 638.5  422.5 635.86  422.5 632.5  C 422.5 629.14  425.14 626.5  428.5 626.5  Z " stroke-width="1" stroke="#797979" fill="none" />
  <path d="M 428.5 635.75  C 426.68 635.75  425.25 634.32  425.25 632.5  C 425.25 630.68  426.68 629.25  428.5 629.25  C 430.32 629.25  431.75 630.68  431.75 632.5  C 431.75 634.32  430.32 635.75  428.5 635.75  " fill-rule="nonzero" fill="#797979" stroke="none" />
</svg>