<?xml version="1.0" encoding="utf-8"?>
<svg version="1.1" xmlns:xlink="http://www.w3.org/1999/xlink" width="14px" height="14px" xmlns="http://www.w3.org/2000/svg">
  <g transform="matrix(1 0 0 1 -648 -64 )">
    <path d="M 655 64  C 658.92 64  662 67.08  662 71  C 662 74.92  658.92 78  655 78  C 651.08 78  648 74.92  648 71  C 648 67.08  651.08 64  655 64  Z " fill-rule="nonzero" fill="#ffffff" stroke="none" />
    <path d="M 655 64.5  C 658.64 64.5  661.5 67.36  661.5 71  C 661.5 74.64  658.64 77.5  655 77.5  C 651.36 77.5  648.5 74.64  648.5 71  C 648.5 67.36  651.36 64.5  655 64.5  Z " stroke-width="1" stroke="#dcdfe6" fill="none" />
  </g>
</svg>