<?xml version="1.0" encoding="utf-8"?>
<svg version="1.1" xmlns:xlink="http://www.w3.org/1999/xlink" width="19px" height="20px" xmlns="http://www.w3.org/2000/svg">
  <g transform="matrix(1 0 0 1 -447 -231 )">
    <path d="M 11.738932291666666 12.356770833333336  C 12.357421875 11.705729166666664  12.666666666666666 10.92013888888889  12.666666666666666 10  C 12.666666666666666 9.079861111111109  12.357421875 8.294270833333332  11.738932291666666 7.643229166666668  C 11.120442708333334 6.9921875  10.374131944444446 6.666666666666668  9.5 6.666666666666668  C 8.625868055555555 6.666666666666668  7.879557291666667 6.9921875  7.261067708333333 7.643229166666668  C 6.642578125 8.294270833333332  6.333333333333333 9.079861111111109  6.333333333333333 10  C 6.333333333333333 10.92013888888889  6.642578125 11.705729166666664  7.261067708333333 12.356770833333336  C 7.879557291666667 13.0078125  8.625868055555555 13.333333333333336  9.5 13.333333333333336  C 10.374131944444446 13.333333333333336  11.120442708333334 13.0078125  11.738932291666666 12.356770833333336  Z M 18.901041666666664 8.274739583333332  C 18.96701388888889 8.365885416666668  19 8.467881944444445  19 8.580729166666668  L 19 11.471354166666664  C 19 11.575520833333336  18.96701388888889 11.675347222222223  18.901041666666664 11.770833333333336  C 18.835069444444446 11.866319444444443  18.752604166666664 11.922743055555554  18.653645833333336 11.940104166666664  L 16.365234375 12.3046875  C 16.208550347222225 12.7734375  16.047743055555557 13.168402777777777  15.8828125 13.489583333333336  C 16.171440972222225 13.92361111111111  16.612630208333336 14.522569444444443  17.206380208333336 15.286458333333332  C 17.28884548611111 15.390625  17.330078125 15.499131944444445  17.330078125 15.611979166666668  C 17.330078125 15.724826388888891  17.29296875 15.824652777777777  17.21875 15.911458333333332  C 16.99609375 16.23263888888889  16.587890625 16.70138888888889  15.994140625 17.317708333333332  C 15.400390625 17.93402777777778  15.012803819444446 18.2421875  14.831380208333334 18.2421875  C 14.732421875 18.2421875  14.62521701388889 18.203125  14.509765625 18.125  L 12.802734375 16.71875  C 12.439887152777779 16.91840277777778  12.06467013888889 17.083333333333332  11.677083333333334 17.213541666666668  C 11.54513888888889 18.39409722222222  11.425564236111112 19.20138888888889  11.318359375 19.635416666666668  C 11.260633680555555 19.87847222222222  11.112196180555555 20  10.873046875 20  L 8.126953125 20  C 8.011501736111112 20  7.910481770833333 19.96310763888889  7.823893229166667 19.889322916666668  C 7.7373046875 19.815538194444443  7.6898871527777795 19.72222222222222  7.681640625 19.609375  L 7.335286458333333 17.213541666666668  C 6.931206597222223 17.07465277777778  6.560112847222223 16.9140625  6.222005208333333 16.731770833333332  L 4.477864583333334 18.125  C 4.395399305555556 18.203125  4.292317708333334 18.2421875  4.168619791666666 18.2421875  C 4.053168402777778 18.2421875  3.9500868055555562 18.194444444444443  3.859375 18.098958333333332  C 2.8203125 17.109375  2.139973958333333 16.380208333333332  1.818359375 15.911458333333332  C 1.7606336805555558 15.824652777777777  1.7317708333333333 15.724826388888891  1.7317708333333333 15.611979166666668  C 1.7317708333333333 15.5078125  1.7647569444444449 15.407986111111109  1.8307291666666667 15.3125  C 1.9544270833333333 15.130208333333332  2.164713541666667 14.84157986111111  2.4615885416666665 14.446614583333336  C 2.7584635416666665 14.051649305555554  2.9811197916666665 13.745659722222218  3.1295572916666665 13.528645833333336  C 2.9069010416666665 13.094618055555554  2.7378472222222223 12.664930555555554  2.6223958333333335 12.239583333333336  L 0.3587239583333333 11.888020833333336  C 0.25151909722222227 11.870659722222223  0.16493055555555555 11.81640625  0.09895833333333333 11.725260416666664  C 0.03298611111111111 11.634114583333336  0 11.532118055555554  0 11.419270833333336  L 0 8.528645833333332  C 0 8.424479166666668  0.03298611111111111 8.324652777777777  0.09895833333333333 8.229166666666668  C 0.16493055555555555 8.133680555555555  0.24327256944444448 8.077256944444445  0.333984375 8.059895833333332  L 2.634765625 7.6953125  C 2.750217013888889 7.296006944444445  2.9110243055555554 6.896701388888888  3.1171875 6.497395833333332  C 2.787326388888889 6.002604166666668  2.346137152777778 5.403645833333332  1.7936197916666667 4.700520833333332  C 1.711154513888889 4.596354166666668  1.669921875 4.4921875  1.669921875 4.388020833333332  C 1.669921875 4.301215277777777  1.70703125 4.201388888888886  1.78125 4.088541666666668  C 1.9956597222222223 3.7760416666666674  2.401801215277778 3.3094618055555536  2.9996744791666665 2.6888020833333326  C 3.5975477430555562 2.0681423611111094  3.9871961805555562 1.7578125  4.168619791666666 1.7578125  C 4.275824652777778 1.7578125  4.383029513888889 1.8012152777777768  4.490234375 1.8880208333333326  L 6.197265625 3.28125  C 6.560112847222223 3.081597222222221  6.9353298611111125 2.9166666666666674  7.322916666666667 2.7864583333333326  C 7.4548611111111125 1.6059027777777768  7.574435763888889 0.7986111111111094  7.681640625 0.3645833333333326  C 7.739366319444445 0.12152777777777679  7.887803819444445 0  8.126953125 0  L 10.873046875 0  C 10.98849826388889 0  11.089518229166666 0.036892361111109384  11.176106770833334 0.1106770833333326  C 11.2626953125 0.18446180555555358  11.310112847222221 0.2777777777777768  11.318359375 0.390625  L 11.664713541666666 2.7864583333333326  C 12.068793402777779 2.925347222222221  12.439887152777779 3.0859375  12.777994791666666 3.2682291666666674  L 14.534505208333334 1.875  C 14.608723958333334 1.796875  14.707682291666666 1.7578125  14.831380208333334 1.7578125  C 14.938585069444446 1.7578125  15.041666666666666 1.8012152777777768  15.140625 1.8880208333333326  C 16.204427083333336 2.921006944444444  16.884765625 3.6588541666666674  17.181640625 4.1015625  C 17.239366319444446 4.171006944444445  17.268229166666664 4.266493055555554  17.268229166666664 4.388020833333332  C 17.268229166666664 4.4921875  17.235243055555557 4.592013888888886  17.169270833333336 4.6875  C 17.045572916666664 4.869791666666668  16.835286458333336 5.158420138888886  16.538411458333336 5.553385416666668  C 16.241536458333336 5.948350694444445  16.018880208333336 6.254340277777777  15.870442708333334 6.471354166666668  C 16.084852430555557 6.905381944444445  16.25390625 7.330729166666665  16.377604166666664 7.747395833333332  L 18.641276041666664 8.111979166666668  C 18.74848090277778 8.129340277777777  18.835069444444446 8.183593749999998  18.901041666666664 8.274739583333332  Z " fill-rule="nonzero" fill="#000000" stroke="none" transform="matrix(1 0 0 1 447 231 )" />
  </g>
</svg>