<?xml version="1.0" encoding="utf-8"?>
<svg version="1.1" xmlns:xlink="http://www.w3.org/1999/xlink" width="14px" height="9px" xmlns="http://www.w3.org/2000/svg">
  <g transform="matrix(1 0 0 1 -391 -117 )">
    <path d="M 13.859719438877761 0.8371134020618634  C 13.953239812959254 0.9301260022909474  14 1.0370904925544036  14 1.1580068728522317  C 14 1.2789232531500598  13.953239812959254 1.385887743413516  13.859719438877761 1.4789003436426214  L 7.322645290581163 7.980481099656377  C 7.229124916499671 8.073493699885482  7.121576486305941 8.120000000000015  7 8.120000000000015  C 6.8784235136940595 8.120000000000015  6.770875083500329 8.073493699885482  6.677354709418836 7.980481099656377  L 0.14028056112223908 1.4789003436426214  C 0.04676018704074636 1.385887743413516  0 1.2789232531500598  0 1.1580068728522317  C 0 1.0370904925544036  0.04676018704074636 0.9301260022909474  0.14028056112223908 0.8371134020618634  L 0.8416833667334629 0.1395189003436368  C 0.9352037408149556 0.0465063001145527  1.0427521710086864 0  1.164328657314627 0  C 1.2859051436205675 0  1.3934535738142984 0.0465063001145527  1.486973947895791 0.1395189003436368  L 7 5.622611683848799  L 12.513026052104209 0.1395189003436368  C 12.606546426185702 0.0465063001145527  12.714094856379432 0  12.835671342685373 0  C 12.957247828991314 0  13.064796259185044 0.0465063001145527  13.158316633266537 0.1395189003436368  L 13.859719438877761 0.8371134020618634  Z " fill-rule="nonzero" fill="#dcdfe6" stroke="none" transform="matrix(1 0 0 1 391 117 )" />
  </g>
</svg>